<svg xmlns="http://www.w3.org/2000/svg" viewBox="0 0 24 24" fill="none" stroke="currentColor" stroke-width="1.5" stroke-linecap="round" stroke-linejoin="round">
  <!-- Brain-like shape representing AI -->
  <circle cx="12" cy="12" r="3"/>
  <path d="M6.3 6.3a8 8 0 0 0 0 11.4"/>
  <path d="M17.7 6.3a8 8 0 0 1 0 11.4"/>
  <path d="M9 3.5A9.5 9.5 0 0 1 12 3a9 9 0 0 1 3 .5"/>
  <path d="M9 20.5A9.5 9.5 0 0 0 12 21a9 9 0 0 0 3-.5"/>
  <path d="M3.5 9A9.5 9.5 0 0 0 3 12a9 9 0 0 0 .5 3"/>
  <path d="M20.5 9A9.5 9.5 0 0 1 21 12a9 9 0 0 1-.5 3"/>
  <circle cx="12" cy="12" r="1" fill="currentColor"/>
</svg>
